<svg width="400" height="66" viewBox="0 0 400 66" fill="none" xmlns="http://www.w3.org/2000/svg">
<g clip-path="url(#clip0_1_105)">
<path d="M57.7 19.51C56.65 15.58 54.95 12.14 52.6 9.18C50.26 6.22 47.29 3.95 43.7 2.37C40.12 0.79 35.41 0 29.58 0H0V64.42H10.61C11 63.88 11.43 63.2 11.86 62.39C13.5 59.26 13.86 56.39 14.01 54.85C14.76 46.83 13.63 41.56 14.01 32.36C14.11 29.95 14.85 27.37 16.75 24.99C17.24 24.37 19.01 22.21 22.09 21.16C23.73 20.61 25.12 20.57 26.26 20.55C27.58 20.51 29.21 20.48 31.09 21.16C31.49 21.3 33.33 22 35.14 23.8C37.68 26.34 36.95 27.84 39.18 30.45C40.86 32.42 42.77 33.31 44.75 34.24C47.6 35.58 50.26 36.06 52.23 36.22C51.95 36.92 51.11 38.77 49.09 40.05C47.82 40.86 46.63 41.07 45.57 41.24C44.47 41.42 43.62 41.42 39.53 41.02C35.78 40.66 35.55 40.58 34.49 40.63C32.53 40.72 31.02 40.8 29.53 41.77C27.55 43.06 26.82 45.13 26.31 46.59C25.58 48.69 25.59 50.43 25.62 51.89C25.67 55.06 26.48 57.43 27.01 58.94C27.52 60.38 28.34 62.31 29.68 64.42C33.19 64.41 37.12 63.83 41.44 62.66C44.63 61.81 47.62 60.11 50.41 57.54C53.19 54.98 55.36 51.8 56.93 48.01C58.5 44.21 59.28 38.87 59.28 31.99C59.28 27.6 58.76 23.44 57.7 19.51Z" fill="#E74B94"/>
<path d="M117.73 64.42H101.03V56.86C98.54 59.97 96.03 62.18 93.49 63.5C90.96 64.82 87.84 65.48 84.15 65.48C79.23 65.48 75.37 64.01 72.57 61.06C69.77 58.12 68.37 53.58 68.37 47.46V17.75H86.34V43.41C86.34 46.34 86.88 48.42 87.97 49.65C89.05 50.88 90.58 51.5 92.54 51.5C94.68 51.5 96.43 50.68 97.79 49.04C99.15 47.4 99.83 44.46 99.83 40.21V17.75H117.72V64.42H117.73Z" fill="#E74B94"/>
<path d="M163.39 46.14L180.4 48.07C179.46 51.61 177.92 54.68 175.79 57.28C173.65 59.87 170.92 61.89 167.59 63.32C164.26 64.76 160.04 65.47 154.91 65.47C149.78 65.47 145.84 65.01 142.54 64.09C139.24 63.17 136.41 61.68 134.04 59.61C131.67 57.55 129.81 55.13 128.46 52.34C127.11 49.56 126.44 45.87 126.44 41.28C126.44 36.69 127.26 32.48 128.9 29.29C130.1 26.95 131.74 24.85 133.82 22.99C135.9 21.13 138.04 19.75 140.24 18.84C143.73 17.41 148.19 16.69 153.64 16.69C161.26 16.69 167.07 18.05 171.06 20.78C175.05 23.51 177.86 27.49 179.48 32.73L162.65 34.97C162.12 32.98 161.16 31.48 159.77 30.47C158.38 29.46 156.51 28.95 154.17 28.95C151.21 28.95 148.82 30.01 146.98 32.13C145.15 34.25 144.23 37.46 144.23 41.76C144.23 45.59 145.14 48.5 146.95 50.49C148.77 52.48 151.08 53.47 153.89 53.47C156.23 53.47 158.2 52.87 159.8 51.67C161.4 50.47 162.59 48.62 163.38 46.13L163.39 46.14Z" fill="#E74B94"/>
<path d="M187.08 0H205.36V33.25L218.72 17.75H240.74L224 34.1L241.71 64.42H221.56L212.11 45.71L205.37 52.29V64.42H187.09V0H187.08Z" fill="#E74B94"/>
<path d="M247.19 0H265.25V22.32C267.04 20.45 269.07 19.04 271.34 18.1C273.61 17.16 276.12 16.69 278.88 16.69C284.56 16.69 289.27 18.73 292.99 22.82C296.71 26.91 298.57 32.77 298.57 40.42C298.57 45.52 297.72 50.01 296.02 53.89C294.32 57.77 291.97 60.67 288.97 62.59C285.97 64.51 282.63 65.47 278.97 65.47C275.84 65.47 272.96 64.8 270.36 63.45C268.4 62.4 266.26 60.42 263.94 57.52V64.42H247.2V0H247.19ZM265.12 40.96C265.12 44.97 265.87 47.88 267.38 49.68C268.89 51.48 270.8 52.38 273.12 52.38C275.26 52.38 277.05 51.49 278.5 49.72C279.95 47.95 280.67 44.97 280.67 40.78C280.67 37.09 279.96 34.38 278.54 32.65C277.12 30.92 275.4 30.06 273.38 30.06C270.95 30.06 268.96 30.96 267.43 32.76C265.89 34.56 265.12 37.29 265.12 40.96Z" fill="#E74B94"/>
<path d="M304.94 41.22C304.94 34.1 307.34 28.23 312.15 23.62C316.96 19.01 323.44 16.7 331.62 16.7C340.97 16.7 348.03 19.41 352.8 24.83C356.64 29.2 358.56 34.57 358.56 40.96C358.56 48.14 356.18 54.02 351.42 58.6C346.66 63.18 340.08 65.48 331.67 65.48C324.17 65.48 318.11 63.58 313.48 59.77C307.8 55.05 304.95 48.87 304.95 41.23L304.94 41.22ZM322.87 41.18C322.87 45.34 323.71 48.42 325.4 50.41C327.08 52.4 329.2 53.4 331.75 53.4C334.3 53.4 336.44 52.42 338.1 50.46C339.75 48.5 340.58 45.35 340.58 41.01C340.58 36.97 339.75 33.96 338.08 31.98C336.41 30 334.34 29.01 331.88 29.01C329.27 29.01 327.12 30.01 325.42 32.02C323.72 34.03 322.87 37.08 322.87 41.18Z" fill="#E74B94"/>
<path d="M388.74 0V17.75H398.58V30.85H388.74V47.38C388.74 49.37 388.93 50.68 389.31 51.33C389.9 52.32 390.92 52.82 392.39 52.82C393.71 52.82 395.55 52.44 397.93 51.68L399.25 64.03C394.83 65 390.7 65.48 386.86 65.48C382.41 65.48 379.13 64.91 377.02 63.77C374.91 62.63 373.35 60.9 372.34 58.57C371.33 56.24 370.82 52.48 370.82 47.27V30.85H364.23V17.75H370.82V9.18L388.75 0L388.74 0Z" fill="#E74B94"/>
<path d="M30.42 30.52C31.2595 30.52 31.94 29.8395 31.94 29C31.94 28.1605 31.2595 27.48 30.42 27.48C29.5805 27.48 28.9 28.1605 28.9 29C28.9 29.8395 29.5805 30.52 30.42 30.52Z" fill="#E74B94"/>
</g>
<defs>
<clipPath id="clip0_1_105">
<rect width="399.24" height="65.48" fill="white"/>
</clipPath>
</defs>
</svg>
